<svg width="368" height="298" viewBox="0 0 368 298" fill="none" xmlns="http://www.w3.org/2000/svg">
<path d="M88.899 54.3043C113.162 30.0341 146.628 15.0536 183.608 15.0536V5.84761C183.608 4.00642 185.114 2.5 186.955 2.5C265.182 4.25749 328.266 67.36 330.023 145.61C330.107 147.452 328.517 148.958 326.677 148.958H317.473C317.473 222.94 257.485 282.946 183.525 282.946V292.152C183.525 293.994 182.019 295.5 180.178 295.5C142.278 294.663 107.891 279.348 82.3731 254.994C81.0344 253.738 81.0344 251.563 82.3731 250.223L88.8154 243.696C64.5524 219.425 49.5762 185.949 49.5762 148.958H40.373C38.5323 148.958 37.0264 147.452 37.0264 145.61C37.863 107.699 53.1738 73.302 77.5205 47.7765C78.7755 46.4374 80.9508 46.4374 82.2894 47.7765L88.899 54.3043Z" fill="#45E0A8" stroke="white" stroke-width="2" stroke-linecap="round" stroke-linejoin="round"/>
<path d="M196.185 183.132C190.335 198.795 190.066 214.381 197.07 219.807C205.652 226.427 227.819 219.884 245.714 196.679C244.444 188.097 243.174 179.515 241.866 170.933L196.185 183.132Z" fill="#45E0A8"/>
<path d="M196.185 183.132C192.106 194.1 190.72 204.991 192.683 212.418C194.145 202.066 198.879 189.751 204.728 180.861L196.185 183.132Z" fill="white"/>
<path d="M222.47 194.87C223.855 191.945 225.702 188.674 228.127 185.287C229.512 183.363 230.898 181.631 232.283 180.092" stroke="black" stroke-width="1.2" stroke-miterlimit="10" stroke-linecap="round" stroke-linejoin="round"/>
<path d="M196.185 183.132C190.335 198.795 190.066 214.381 197.07 219.807C205.652 226.427 227.819 219.884 245.714 196.679C244.444 188.097 243.174 179.515 241.866 170.933L196.185 183.132Z" stroke="black" stroke-width="1.2" stroke-miterlimit="10" stroke-linecap="round" stroke-linejoin="round"/>
<path d="M322.298 108.051L305.673 151.191L311.715 152.154L332.65 109.552L322.298 108.051Z" fill="#45E0A8" stroke="black" stroke-width="1.2" stroke-miterlimit="10" stroke-linecap="round" stroke-linejoin="round"/>
<path d="M322.298 108.051L305.673 151.191L311.715 152.154L332.65 109.552L322.298 108.051Z" fill="#45E0A8"/>
<path d="M298.322 149.998L311.946 106.588L322.298 108.05L305.673 151.191L298.322 149.998Z" fill="#45E0A8"/>
<path d="M322.029 108.012L320.374 109.82L301.44 140.031L298.399 149.805L298.707 150.075L305.673 151.191L322.298 108.05L322.029 108.012Z" fill="black"/>
<path d="M322.298 108.05L305.673 151.191L298.322 149.998L311.946 106.588" stroke="black" stroke-width="1.2" stroke-miterlimit="10" stroke-linecap="round" stroke-linejoin="round"/>
<path d="M312.908 132.488L305.673 151.191L311.715 152.153L331.804 111.283L312.908 132.488Z" fill="black"/>
<path d="M322.298 108.051L305.673 151.191L311.715 152.154L332.65 109.552" stroke="black" stroke-width="1.2" stroke-miterlimit="10" stroke-linecap="round" stroke-linejoin="round"/>
<path d="M322.295 108.085C322.598 105.981 320.524 103.942 317.662 103.531C314.801 103.119 312.237 104.491 311.934 106.595C311.632 108.699 313.706 110.738 316.567 111.149C319.428 111.56 321.993 110.188 322.295 108.085Z" fill="#45E0A8" stroke="black" stroke-width="1.2" stroke-miterlimit="10"/>
<path d="M332.66 109.575C332.963 107.471 330.889 105.432 328.028 105.021C325.167 104.61 322.602 105.982 322.3 108.085C321.997 110.189 324.071 112.228 326.932 112.639C329.794 113.051 332.358 111.679 332.66 109.575Z" fill="#45E0A8" stroke="black" stroke-width="1.2" stroke-miterlimit="10"/>
<path d="M320.807 107.874C321.013 106.443 319.525 105.045 317.485 104.752C315.444 104.459 313.623 105.381 313.417 106.811C313.212 108.242 314.699 109.639 316.74 109.933C318.78 110.226 320.601 109.304 320.807 107.874Z" fill="black" stroke="#45E0A8" stroke-width="1.2" stroke-miterlimit="10"/>
<path d="M332.612 109.551C332.304 111.668 329.764 113.015 326.877 112.63C324.03 112.207 322.144 110.205 322.413 108.127C322.721 106.011 325.107 104.587 327.955 105.01C330.841 105.395 332.919 107.435 332.612 109.551Z" fill="#45E0A8" stroke="black" stroke-width="1.2" stroke-miterlimit="10"/>
<path d="M331.154 109.342C331.359 107.912 329.872 106.514 327.831 106.221C325.791 105.927 323.97 106.849 323.764 108.28C323.558 109.71 325.046 111.108 327.086 111.401C329.127 111.695 330.948 110.773 331.154 109.342Z" fill="black" stroke="#45E0A8" stroke-width="1.2" stroke-miterlimit="10"/>
<path d="M308.636 142.493L311.099 138.145C324.915 139.568 338.076 145.88 341.848 153.962C348.813 168.97 340 193.331 315.409 203.067C314.139 199.796 312.33 194.601 311.06 191.33C323.029 185.826 326.185 176.937 325.915 174.166C325.453 168.893 320.989 166.546 315.063 168.624C312.6 158.002 311.137 153.115 308.636 142.493Z" fill="#45E0A8" stroke="black" stroke-width="1.2" stroke-miterlimit="10" stroke-linecap="round" stroke-linejoin="round"/>
<path d="M286.546 257.369V257.715C286.546 258.446 286.892 259.1 287.393 259.601C292.549 264.834 297.283 264.95 298.322 264.18C300.4 262.679 298.591 261.332 294.204 256.291C290.702 256.791 290.086 256.907 286.546 257.369Z" fill="black"/>
<path d="M261.454 278.343C257.066 286.809 256.989 291.966 258.182 292.659C259.491 293.467 268.997 289.618 271.613 280.575C271.652 278.958 271.152 277.15 271.19 275.533L261.454 278.343Z" fill="black"/>
<path d="M298.245 213.92L304.21 215.228C302.94 223.002 301.286 231.276 299.13 239.974C297.784 245.361 296.36 250.518 294.82 255.406C294.705 255.945 294.281 257.369 293.011 258.254C291.241 259.447 288.586 259.177 286.546 257.407C284.506 248.286 282.467 239.166 280.389 230.045C277.156 230.507 272.384 266.913 271.191 275.533C270.344 278.419 267.881 280.421 265.11 280.574C261.839 280.728 259.761 278.188 259.569 277.919C257.76 270.953 255.566 262.333 254.066 254.444C252.334 245.323 249.601 232.508 248.678 224.388C249.024 220.77 250.794 221.309 251.141 217.73L298.245 213.92Z" fill="black" stroke="black" stroke-width="1.2" stroke-miterlimit="10" stroke-linecap="round" stroke-linejoin="round"/>
<path d="M266.496 139.26C263.34 140.723 261.416 141.646 257.414 142.993C253.719 144.225 248.524 145.764 245.33 146.495C243.02 156.924 241.558 166.969 239.249 177.398C240.25 188.943 244.868 215.305 248.678 224.426C283.544 232.238 300.092 218.845 304.21 215.266C309.29 202.028 313.331 188.443 316.102 174.358C316.91 168.508 316.91 141.492 314.755 138.837C312.253 138.414 305.75 137.413 302.671 137.221C298.938 137.028 295.551 137.144 292.588 137.413C283.929 138.029 275.193 138.644 266.496 139.26Z" fill="black" stroke="black" stroke-width="1.2" stroke-miterlimit="10" stroke-linecap="round" stroke-linejoin="round"/>
<path d="M245.676 223.541C291.78 234.74 302.671 213.92 306.442 209.879" stroke="#45E0A8" stroke-width="1.2" stroke-miterlimit="10" stroke-linecap="round" stroke-linejoin="round"/>
<path d="M290.009 133.142C291.51 133.219 293.434 133.449 295.628 134.142C297.475 134.719 298.976 135.412 300.131 136.066C299.9 140.107 298.976 147.111 295.051 154.731C290.625 163.313 284.621 168.432 281.235 170.895C277.617 169.394 269.805 165.545 263.763 157.079C259.915 151.652 257.836 144.918 257.067 141.454C256.605 136.22 262.993 136.721 263.879 136.567C272.307 135.181 281.581 134.566 290.009 133.142Z" fill="black" stroke="#45E0A8" stroke-width="1.2" stroke-miterlimit="10" stroke-linecap="round" stroke-linejoin="round"/>
<path d="M264.302 132.757L265.303 143.801C266.073 146.034 267.804 149.997 271.499 153.769C274.847 157.194 278.388 158.926 280.543 159.772C282.736 157.925 285.969 154.731 288.624 149.882C291.357 144.879 292.319 140.299 292.665 137.413C292.088 135.027 291.588 132.449 291.241 129.639C290.433 123.405 290.51 117.863 290.933 113.207C291.626 112.899 295.282 111.167 295.898 107.78C296.629 103.893 292.819 100.661 291.357 99.4293C285.315 94.3109 274.501 93.0024 267.573 97.4666C258.607 103.239 255.489 118.979 264.302 132.757Z" fill="#45E0A8" stroke="black" stroke-width="1.2" stroke-miterlimit="10" stroke-linecap="round" stroke-linejoin="round"/>
<path d="M265.264 143.802C265.303 143.917 265.341 144.032 265.38 144.148C267.419 142.878 269.728 141.146 272.037 138.799C275.54 135.22 277.618 131.602 278.811 129.101C275.463 129.216 272.114 129.331 268.805 129.447C267.304 130.563 265.765 131.679 264.264 132.795L265.264 143.802Z" fill="black" stroke="black" stroke-width="1.2" stroke-miterlimit="10" stroke-linecap="round" stroke-linejoin="round"/>
<path d="M254.951 95.6584C251.333 94.0036 249.601 89.8473 250.871 86.1913C252.218 82.3813 256.49 80.2262 260.454 81.4962C259.877 85.1522 259.299 88.8082 258.684 92.4257L254.951 95.6584Z" fill="black" stroke="black" stroke-width="1.2" stroke-miterlimit="10" stroke-linecap="round" stroke-linejoin="round"/>
<path d="M278.849 129.063C265.534 139.723 255.104 137.452 253.834 136.644C245.753 131.526 247.677 108.204 259.222 82.9971L288.393 84.9982L293.665 113.746L278.849 129.063Z" fill="#45E0A8"/>
<path d="M283.506 84.9979C284.006 88.0766 285.392 100.122 285.392 101.508C294.936 96.3892 296.321 111.013 288.355 114.361C288.278 115.246 288.432 117.055 288.701 118.402C289.125 120.48 290.01 121.981 290.625 122.905C295.051 124.059 299.669 122.289 302.055 118.556C304.172 115.208 304.133 110.859 301.901 107.434C302.402 106.588 303.825 103.894 303.287 100.315C302.902 97.6977 301.632 95.9274 300.978 95.1192C299.323 93.0026 297.668 90.9245 295.975 88.8078C295.975 88.8078 289.317 83.6895 289.009 83.6895C288.74 83.6895 283.506 84.9979 283.506 84.9979Z" fill="black" stroke="black" stroke-width="1.2" stroke-miterlimit="10" stroke-linecap="round" stroke-linejoin="round"/>
<path d="M263.878 84.5749L259.222 82.9971C249.062 105.202 246.368 125.907 251.332 134.027C250.678 121.943 255.835 98.4677 263.878 84.5749Z" fill="white"/>
<path d="M259.222 82.9971C247.677 108.243 245.753 131.526 253.834 136.644C255.104 137.452 265.572 139.723 278.849 129.063" stroke="black" stroke-width="1.2" stroke-miterlimit="10" stroke-linecap="round" stroke-linejoin="round"/>
<path d="M259.876 98.9679C253.103 97.2746 248.254 96.197 247.292 98.6215C246.368 101.008 250.101 103.701 256.297 106.588" fill="#45E0A8"/>
<path d="M259.876 98.9679C253.103 97.2746 248.254 96.197 247.292 98.6215C246.368 101.008 250.101 103.701 256.297 106.588" stroke="black" stroke-width="1.2" stroke-miterlimit="10" stroke-linecap="round" stroke-linejoin="round"/>
<path d="M267.111 73.6838C274.847 62.6774 288.662 58.675 296.513 62.8698C305.326 67.5649 306.827 85.46 301.016 95.081C299.053 91.6174 294.281 84.267 285.045 79.0331C277.733 74.9538 270.921 73.9532 267.111 73.6838Z" fill="#45E0A8"/>
<path d="M269.767 73.1064L267.073 73.7222C260.107 75.8003 256.682 77.7245 256.798 79.4563C256.952 82.689 263.225 87.7689 293.666 87.3456C291.664 84.6517 287.739 80.1875 281.389 76.8779C276.848 74.4534 272.692 73.4913 269.767 73.1064Z" fill="#45E0A8"/>
<path d="M267.111 73.6833C260.145 75.7614 256.72 77.6856 256.836 79.4174C256.913 80.8798 258.221 82.727 262.455 84.2279C259.915 78.8017 270.575 74.8763 270.96 73.7218C269.843 72.7597 269.613 74.3375 268.458 73.3369L267.111 73.6833Z" fill="white"/>
<path d="M295.513 62.446C287.508 59.0594 274.5 63.1772 267.111 73.7219C269.767 73.5295 275.655 76.0694 275.655 76.0694C281.235 68.5265 282.967 61.253 295.513 62.446Z" fill="white"/>
<path d="M271.459 68.7188C270.613 69.6809 267.842 72.6056 267.072 73.6832C278.81 74.222 296.397 89.962 300.977 95.0804C301.631 94.0028 302.17 92.8483 302.632 91.6168C297.821 87.5375 283.505 69.7193 271.459 68.7188Z" fill="black" stroke="black" stroke-width="1.2" stroke-miterlimit="10" stroke-linecap="round" stroke-linejoin="round"/>
<path d="M267.111 73.6838C274.847 62.6774 288.662 58.675 296.513 62.8698C305.326 67.5649 306.827 85.46 301.016 95.081C298.822 91.5405 293.973 84.8057 285.314 79.6874C277.964 75.4156 271.075 74.1456 267.111 73.6838Z" stroke="black" stroke-width="1.2" stroke-miterlimit="10" stroke-linecap="round" stroke-linejoin="round"/>
<path d="M269.767 73.1064L267.073 73.7222C260.107 75.8003 256.682 77.7245 256.798 79.4563C256.952 82.689 263.225 87.7689 293.666 87.3456C285.699 82.5735 277.733 77.84 269.767 73.1064Z" stroke="black" stroke-width="1.2" stroke-miterlimit="10" stroke-linecap="round" stroke-linejoin="round"/>
<path d="M311.021 74.4153C310.79 74.8002 310.559 75.185 310.328 75.5698C309.327 77.1092 308.288 78.4177 307.326 79.4952C307.557 78.9564 307.865 77.9559 307.788 76.6859C307.749 76.301 307.711 75.9547 307.634 75.6083C306.864 75.9547 306.056 76.4165 305.286 76.9168C300.668 79.9185 298.629 84.0363 297.897 85.7681C298.321 85.9221 306.633 89.1547 313.407 83.9594C318.063 80.3804 318.987 75.185 319.141 73.9535C318.063 73.7996 314.869 73.4147 311.021 74.4153Z" fill="#45E0A8"/>
<path d="M319.179 73.9531C316.909 76.1082 313.676 78.8021 309.366 81.1881C305.017 83.6126 300.976 84.9596 297.897 85.7678C298.321 85.9217 306.633 89.1544 313.407 83.959C318.063 80.38 318.987 75.1846 319.179 73.9531Z" fill="white"/>
<path d="M303.286 80.7655V78.418" stroke="black" stroke-width="1.2" stroke-miterlimit="10" stroke-linecap="round" stroke-linejoin="round"/>
<path d="M311.021 74.4153C310.79 74.8002 310.559 75.185 310.328 75.5698C309.327 77.1092 308.288 78.4177 307.326 79.4952C307.557 78.9564 307.865 77.9559 307.788 76.6859C307.749 76.301 307.711 75.9547 307.634 75.6083C306.864 75.9547 306.056 76.4165 305.286 76.9168C300.668 79.9185 298.629 84.0363 297.897 85.7681C298.321 85.9221 306.633 89.1547 313.407 83.9594C318.063 80.3804 318.987 75.185 319.141 73.9535C318.063 73.7996 314.869 73.4147 311.021 74.4153Z" stroke="black" stroke-width="1.2" stroke-miterlimit="10" stroke-linecap="round" stroke-linejoin="round"/>
<path d="M317.987 74.9541C315.832 76.9168 312.984 79.1489 309.366 81.1885C303.44 84.5367 297.86 85.9606 293.973 86.5763" stroke="black" stroke-width="1.2" stroke-miterlimit="10" stroke-linecap="round" stroke-linejoin="round"/>
<path d="M244.328 213.188C250.293 221.924 275.308 205.838 288.2 182.478C298.437 164.005 305.672 150.728 303.055 136.297C305.941 136.605 308.019 136.72 311.098 137.105C311.945 145.879 311.098 164.39 295.397 187.943C279.541 211.687 261.646 226.427 246.676 221.193C246.06 219.384 244.982 214.881 244.328 213.188Z" fill="#45E0A8"/>
<path d="M311.984 204.26C306.403 209.34 302.555 210.533 302.209 209.571C301.785 208.262 305.48 206.146 311.599 199.988" fill="#45E0A8"/>
<path d="M313.408 206.723C308.367 212.226 304.98 213.881 304.211 212.842C303.556 211.957 306.943 209.878 311.984 204.26" fill="#45E0A8"/>
<path d="M313.1 207.031C307.635 211.841 306.519 213.689 307.058 214.266C307.751 214.997 310.598 213.919 315.832 208.224C318.026 204.183 315.563 198.564 314.139 196.024C313.716 195.293 313.177 194.639 312.523 194.1L311.561 193.292C311.291 194.754 310.56 196.101 309.482 197.102C304.441 201.758 301.593 203.683 301.978 204.606C302.478 205.876 306.173 204.683 311.984 199.68" fill="#45E0A8"/>
<path d="M310.021 199.681L313.408 207.724L315.101 206.954L312.985 198.18L310.021 199.681Z" fill="#45E0A8"/>
<path d="M311.984 204.26C306.403 209.34 302.555 210.533 302.209 209.571C301.785 208.262 305.48 206.146 311.599 199.988" fill="#45E0A8"/>
<path d="M311.984 204.26C306.403 209.34 302.555 210.533 302.209 209.571C301.785 208.262 305.48 206.146 311.599 199.988" stroke="black" stroke-width="1.2" stroke-miterlimit="10" stroke-linecap="round" stroke-linejoin="round"/>
<path d="M313.1 207.031C308.059 212.534 304.864 213.92 304.21 212.804C303.518 211.649 306.75 209.686 311.984 204.222" fill="#45E0A8"/>
<path d="M313.1 207.031C308.059 212.534 304.864 213.92 304.21 212.804C303.518 211.649 306.75 209.686 311.984 204.222" stroke="black" stroke-width="1.2" stroke-miterlimit="10" stroke-linecap="round" stroke-linejoin="round"/>
<path d="M313.1 207.031C307.635 211.841 306.519 213.689 307.058 214.266C307.751 214.997 310.598 213.919 315.832 208.224C318.526 204.414 315.563 198.564 314.139 196.024C313.716 195.293 313.177 194.639 312.523 194.1L311.561 193.292C311.291 194.754 310.56 196.101 309.482 197.102C304.441 201.758 301.593 203.683 301.978 204.606C302.709 206.338 306.173 204.683 311.984 199.68" fill="#45E0A8"/>
<path d="M313.1 207.031C307.635 211.841 306.519 213.689 307.058 214.266C307.751 214.997 310.598 213.919 315.832 208.224C318.526 204.414 315.563 198.564 314.139 196.024C313.716 195.293 313.177 194.639 312.523 194.1L311.561 193.292C311.291 194.754 310.56 196.101 309.482 197.102C304.441 201.758 301.593 203.683 301.978 204.606C302.709 206.338 306.173 204.683 311.984 199.68" stroke="black" stroke-width="1.2" stroke-miterlimit="10" stroke-linecap="round" stroke-linejoin="round"/>
<path d="M300.131 136.066C304.249 136.297 308.674 136.682 313.369 137.336C316.41 137.76 321.267 138.961 324 139.5" stroke="#45E0A8" stroke-width="1.2" stroke-miterlimit="10" stroke-linecap="round" stroke-linejoin="round"/>
<path d="M255.105 129.409C258.505 129.409 261.262 126.652 261.262 123.251C261.262 119.851 258.505 117.094 255.105 117.094C251.704 117.094 248.947 119.851 248.947 123.251C248.947 126.652 251.704 129.409 255.105 129.409Z" fill="white" stroke="black" stroke-width="1.2" stroke-miterlimit="10" stroke-linecap="round" stroke-linejoin="round"/>
<path d="M257.491 123.52L249.332 125.406C250.217 127.715 252.449 129.37 255.066 129.37C258.453 129.37 261.224 126.638 261.224 123.212C261.224 121.712 260.685 120.365 259.8 119.287L257.491 123.52Z" fill="black"/>
<path d="M210.924 133.141C215.003 150.267 226.048 158.618 233.514 158.156C250.409 157.155 248.215 129.062 238.478 125.521C231.744 123.097 219.429 126.984 213.579 141.146" stroke="black" stroke-width="1.2" stroke-miterlimit="10" stroke-linecap="round" stroke-linejoin="round"/>
<path d="M258.029 123.251C258.029 121.635 256.72 120.326 255.104 120.326C254.449 120.326 253.872 120.519 253.41 120.865C250.024 122.751 245.444 125.829 241.019 130.64C235.592 136.566 232.706 142.57 231.205 146.457C234.361 146.572 237.516 146.688 240.672 146.765C240.98 144.34 242.019 138.606 246.483 133.18C250.062 128.793 253.68 127.022 255.989 126.06C256.143 126.022 256.297 125.945 256.451 125.868C257.374 125.368 258.029 124.405 258.029 123.251Z" fill="black"/>
<path d="M255.104 120.326C254.45 120.326 253.872 120.519 253.41 120.865C250.986 122.212 247.946 124.175 244.79 126.945C245.56 128.523 246.56 130.524 247.368 132.141C250.678 128.485 253.872 126.907 255.95 126.022C256.104 125.983 256.258 125.906 256.412 125.829C257.374 125.329 258.029 124.367 258.029 123.212C258.029 121.635 256.72 120.326 255.104 120.326Z" fill="white"/>
<path d="M256.874 120.942C255.719 122.251 254.565 123.675 253.41 125.137C252.256 126.638 251.14 128.1 250.101 129.524C252.371 127.677 254.411 126.677 255.95 126.061C256.104 126.022 256.258 125.945 256.412 125.868C257.374 125.368 258.028 124.406 258.028 123.251C258.028 122.328 257.566 121.481 256.874 120.942Z" fill="black"/>
<path d="M258.029 123.251C258.029 121.635 256.72 120.326 255.104 120.326C254.449 120.326 253.872 120.519 253.41 120.865C250.024 122.751 245.444 125.829 241.019 130.64C235.592 136.566 232.706 142.57 231.205 146.457C234.361 146.572 237.516 146.688 240.672 146.765C240.98 144.34 242.019 138.606 246.483 133.18C250.062 128.793 253.68 127.022 255.989 126.06C256.143 126.022 256.297 125.945 256.451 125.868C257.374 125.368 258.029 124.405 258.029 123.251Z" stroke="black" stroke-width="1.2" stroke-miterlimit="10" stroke-linecap="round" stroke-linejoin="round"/>
<path d="M243.598 116.671C233.322 110.513 221.161 114.092 219.468 114.67L214.35 120.019L192.298 153.924L168.477 176.591C181.792 183.056 199.687 187.713 215.389 185.096C268.728 176.244 257.413 124.906 243.598 116.671ZM233.476 158.195C227.319 158.542 218.621 152.846 213.541 141.108C213.541 141.108 213.542 141.147 213.503 141.147C213.503 141.147 213.465 140.954 213.541 141.108C219.43 126.985 231.706 123.175 238.441 125.522C247.946 128.87 249.832 157.233 233.476 158.195Z" fill="#45E0A8"/>
<path d="M222.124 115.554C222.009 117.132 231.668 115.516 239.173 119.287C248.178 123.828 249.024 132.295 250.756 131.602C251.68 131.256 251.757 128.716 251.372 127.33C249.409 120.403 243.367 115.747 236.71 114.361C230.937 113.207 222.316 112.706 222.124 115.554Z" fill="white"/>
<path d="M243.598 116.67C232.745 110.244 221.161 114.092 219.468 114.669L214.35 120.019L192.298 153.923L168.477 176.59C181.792 183.056 199.687 187.712 215.389 185.095C268.728 176.244 259.261 125.945 243.598 116.67ZM233.476 158.195C227.319 158.541 218.621 152.846 213.541 141.108C213.541 141.108 213.542 141.146 213.503 141.146C213.503 141.146 213.465 140.954 213.541 141.108C219.43 126.984 231.821 122.789 238.441 125.522C248.293 129.601 249.832 157.233 233.476 158.195Z" stroke="black" stroke-width="1.2" stroke-miterlimit="10" stroke-linecap="round" stroke-linejoin="round"/>
<path d="M256.451 145.572C252.679 144.571 246.06 143.339 238.017 144.725C227.818 146.457 223.893 149.458 220.737 152.037C220.737 152.037 224.432 155.962 227.934 157.001C229.589 157.925 231.051 158.887 232.244 159.811C232.321 160.426 235.785 167.892 240.018 167.854C240.634 167.854 241.057 167.2 240.826 166.622C240.21 165.083 239.017 162.081 237.978 159.464C240.826 162.351 246.637 167.123 249.716 166.238C250.293 166.084 250.524 165.429 250.216 164.929C249.408 163.621 248.6 162.274 247.792 160.965C249.562 162.658 251.602 164.198 252.487 163.621C254.334 161.966 249.446 154.769 247.445 152.037C247.022 151.46 246.522 150.959 245.983 150.574C245.56 150.267 245.098 149.959 244.597 149.651L245.675 149.458C246.945 149.497 257.913 149.035 256.451 145.572Z" fill="#45E0A8"/>
<path d="M238.017 144.726C227.818 146.457 223.893 149.459 220.737 152.038C220.737 152.038 221.276 152.615 222.123 153.346C222.854 153.192 223.624 153.115 224.432 153C227.395 152.615 231.744 155.116 234.553 153.346C235.284 152.884 242.25 153.539 240.634 151.499C241.442 151.576 246.098 152.192 245.79 150.421C245.406 150.152 245.021 149.921 244.597 149.652L245.213 149.536C244.597 149.074 242.904 148.343 241.288 147.689C249.1 146.534 253.603 146.804 253.603 144.918C249.716 144.187 244.328 143.648 238.017 144.726Z" fill="white"/>
<path d="M213.541 141.108C212.772 139.107 212.041 136.913 211.348 134.565C210.617 131.987 210.001 129.563 209.539 127.292" stroke="black" stroke-width="1.2" stroke-miterlimit="10" stroke-linecap="round" stroke-linejoin="round"/>
<path d="M221.238 152.538C221.238 152.538 213.003 141.916 210.924 133.142L209.578 127.292C196.416 143.609 183.254 159.965 170.093 176.282C172.44 177.09 176.212 178.091 180.791 177.899C203.959 174.897 221.238 152.538 221.238 152.538Z" fill="black"/>
<path d="M217.698 153.923C220.854 151.345 227.82 146.419 238.018 144.687C245.484 143.417 251.718 144.379 255.567 145.341C256.336 145.534 256.683 146.534 256.105 147.112C254.066 149.228 245.676 149.69 244.599 149.652" stroke="black" stroke-width="1.2" stroke-miterlimit="10" stroke-linecap="round" stroke-linejoin="round"/>
<path d="M239.249 147.266C240.211 147.573 241.327 147.958 242.482 148.497C243.829 149.151 245.022 149.844 245.984 150.537C246.561 150.96 247.061 151.46 247.446 151.999C249.447 154.732 254.335 161.928 252.488 163.583C251.064 164.507 247.562 159.927 246.061 158.157" stroke="black" stroke-width="1.2" stroke-miterlimit="10" stroke-linecap="round" stroke-linejoin="round"/>
<path d="M234.939 149.459C236.209 149.959 237.633 150.537 239.096 151.306C240.289 151.922 241.328 152.538 242.328 153.153C243.098 153.654 243.714 154.27 244.176 155.039C246.177 158.31 248.178 161.543 250.218 164.814C250.564 165.353 250.256 166.084 249.64 166.2C246.408 166.854 240.289 162.082 238.403 159.773" stroke="black" stroke-width="1.2" stroke-miterlimit="10" stroke-linecap="round" stroke-linejoin="round"/>
<path d="M229.782 152.038C229.782 152.038 236.17 154.5 236.17 154.693C236.17 154.847 239.672 163.621 240.865 166.623C241.096 167.2 240.673 167.816 240.057 167.816C235.824 167.931 232.322 160.389 232.245 159.773C231.052 158.849 229.628 157.887 227.935 156.963C226.549 156.579 223.317 155.001 220.738 151.999" stroke="black" stroke-width="1.2" stroke-miterlimit="10" stroke-linecap="round" stroke-linejoin="round"/>
<path d="M211.078 51.8242C212.002 52.8248 214.426 55.942 214.426 55.942C229.089 77.3392 219.737 116.978 190.951 149.382C162.588 181.285 95.4717 180.13 95.4717 180.13C98.0886 183.632 105.555 187.75 110.48 189.136C120.563 191.945 133.532 192.022 148.772 186.711C165.397 180.9 181.599 169.008 196.762 151.883C206.421 140.992 212.579 128.716 217.697 117.132C220.622 110.551 224.778 94.734 223.739 80.4564C222.662 65.64 216.966 57.0965 211.078 51.8242Z" fill="black" stroke="black" stroke-width="1.2" stroke-miterlimit="10" stroke-linecap="round" stroke-linejoin="round"/>
<path d="M166.5 179.5C177.045 172.765 186.872 163.044 196.801 151.884C207.461 139.877 216.189 125.008 221 111.5" stroke="#45E0A8" stroke-width="1.2" stroke-miterlimit="10" stroke-linecap="round" stroke-linejoin="round"/>
<path d="M280.004 155.963L281.235 170.933" stroke="#45E0A8" stroke-width="1.2" stroke-miterlimit="10" stroke-linecap="round" stroke-linejoin="round"/>
<path d="M190.913 149.382C159.241 185.057 116.023 198.449 94.3948 179.246C84.3504 170.317 80.7329 155.963 82.9265 139.569C85.428 120.634 95.6648 99.0064 112.636 79.9182C144.386 44.2049 187.565 30.8125 209.193 50.0161C230.783 69.1812 222.624 113.669 190.913 149.382Z" fill="#45E0A8"/>
<path d="M160.125 123.252C150.312 134.297 147.31 147.882 152.852 154.694C160.279 150.922 167.63 145.303 174.134 137.991C181.523 129.679 186.641 120.481 189.258 111.668C181.715 108.128 169.439 112.784 160.125 123.252Z" fill="black"/>
<path d="M187.604 83.459C192.799 96.813 187.488 116.632 173.134 132.757C168.439 138.068 163.205 142.417 157.855 145.803L155.046 144.148C135.804 152.23 117.062 144.918 112.175 132.911C109.135 125.445 111.982 117.479 114.253 112.861C111.982 117.248 108.788 124.676 108.788 132.488C108.249 141.455 110.712 149.305 116.447 154.424C129.762 166.238 155.585 158.888 174.134 137.991C190.567 119.557 195.762 96.6975 187.604 83.459Z" fill="black" stroke="black" stroke-width="1.2" stroke-miterlimit="10" stroke-linecap="round" stroke-linejoin="round"/>
<path d="M114.253 112.861C115.254 110.975 116.062 109.628 116.37 109.128C116.062 109.59 115.177 110.937 114.253 112.861Z" fill="black" stroke="black" stroke-width="1.2" stroke-miterlimit="10" stroke-linecap="round" stroke-linejoin="round"/>
<path d="M203.381 133.141C218.39 108.088 227.51 82.1882 216.619 59.6365C215.311 56.9041 210.616 51.3624 206.729 57.7892C202.727 65.4476 211.77 107.318 194.953 134.026C187.102 146.534 200.148 138.529 203.381 133.141Z" fill="white"/>
<path d="M113.56 179.207C113.291 180.631 114.138 182.594 117.409 183.056C120.757 183.518 122.604 183.133 126.722 182.71C131.532 182.171 137.151 178.9 137.151 176.706C137.151 172.896 125.875 177.168 117.409 176.629C116.1 176.552 114.253 176.937 113.56 179.207Z" fill="white"/>
<path d="M112.675 79.8794C101.746 92.1944 93.6254 105.51 88.5455 118.518C85.1589 127.792 83.5426 136.451 83.0423 144.109C82.7729 148.304 81.8108 165.122 93.51 175.397C96.5117 178.014 105.786 185.172 107.711 177.822C109.25 171.895 101.13 169.086 98.5899 163.428C96.5117 158.81 95.8575 153.923 96.1269 148.15C97.7432 114.669 129.724 62.4846 168.015 43.3965C148.273 48.4764 128.223 62.3692 112.675 79.8794Z" fill="white"/>
<path d="M190.913 149.382C159.241 185.057 116.023 198.449 94.3948 179.246C84.3504 170.317 80.7329 155.963 82.9265 139.569C85.428 120.634 95.6648 99.0064 112.636 79.9182C144.386 44.2049 187.565 30.8125 209.193 50.0161C230.783 69.1812 222.624 113.669 190.913 149.382Z" stroke="black" stroke-width="1.2" stroke-miterlimit="10" stroke-linecap="round" stroke-linejoin="round"/>
<path d="M173.249 157.656C174.48 158.888 187.988 149.267 184.101 146.804C181.6 145.187 172.21 156.617 173.249 157.656Z" fill="white"/>
<path d="M21.3906 83.4592L31.1271 78.3408" stroke="#45E0A8" stroke-width="1.2" stroke-miterlimit="10" stroke-linecap="round" stroke-linejoin="round"/>
<path d="M27.0473 62.4463H12" stroke="#45E0A8" stroke-width="1.2" stroke-miterlimit="10" stroke-linecap="round" stroke-linejoin="round"/>
<path d="M23.2764 35.623L33.1668 43.2429" stroke="#45E0A8" stroke-width="1.2" stroke-miterlimit="10" stroke-linecap="round" stroke-linejoin="round"/>
<path d="M99.0124 85.3056L96.0106 89.5388C88.5447 100.045 91.431 114.015 101.899 120.365L125.066 134.45C133.61 139.645 145.232 136.451 151.428 127.638L153.929 124.059C160.087 115.246 159.086 103.355 151.274 97.1972L130.146 80.4566C120.64 72.9137 106.44 74.8764 99.0124 85.3056ZM142.923 105.856C147.233 109.05 147.926 115.439 144.578 120.249C141.229 125.021 134.918 126.599 130.415 123.636L114.714 113.13C109.442 109.705 108.172 102.47 111.982 97.1202C115.791 91.7709 123.065 90.5394 128.106 94.2724L142.923 105.856Z" fill="white"/>
<path d="M119.371 76.0312C118.178 76.57 116.985 77.1088 115.792 77.6476C114.291 79.2254 106.325 86.1911 110.635 99.5451C110.904 97.8133 110.866 98.6984 111.982 97.1206C115.792 91.7713 123.065 90.5398 128.107 94.2727L131.994 97.2745C132.379 94.9654 132.763 92.5794 133.071 90.1164C133.379 87.7689 133.61 85.4983 133.764 83.3047L130.185 80.4569C126.952 77.917 123.219 76.4546 119.371 76.0312Z" fill="#45E0A8"/>
<path d="M154.66 100.854C154.853 106.972 155.161 112.206 152.851 117.633C148.657 127.523 141.845 130.409 143.962 132.564C144.347 132.988 146.194 132.872 147.271 132.064C149.234 130.64 149.965 129.678 151.428 127.6L153.929 124.021C159.009 116.786 159.163 107.396 154.66 100.854Z" fill="#45E0A8"/>
<path d="M99.0124 85.3056L96.0106 89.5388C88.5447 100.045 91.431 114.015 101.899 120.365L125.066 134.45C133.61 139.645 145.232 136.451 151.428 127.638L153.929 124.059C160.087 115.246 159.086 103.355 151.274 97.1972L130.146 80.4566C120.64 72.9137 106.44 74.8764 99.0124 85.3056ZM142.923 105.856C147.233 109.05 147.926 115.439 144.578 120.249C141.229 125.021 134.918 126.599 130.415 123.636L114.714 113.13C109.442 109.705 108.172 102.47 111.982 97.1202C115.791 91.7709 123.065 90.5394 128.106 94.2724L142.923 105.856Z" stroke="black" stroke-width="1.2" stroke-miterlimit="10" stroke-linecap="round" stroke-linejoin="round"/>
<path d="M45.9429 42.5881L42.0944 48.1683C32.6273 61.9841 37.6688 81.2262 52.4852 90.5778L85.3121 111.282C97.3961 118.902 113.175 115.4 121.064 103.855L124.258 99.1982C132.186 87.6145 129.954 71.3357 118.793 62.3689L88.5063 38.047C74.806 27.002 55.41 28.7723 45.9429 42.5881ZM111.674 75.9153C117.831 80.5719 119.217 89.3463 114.945 95.6577C110.635 101.931 102.091 103.624 95.7028 99.3137L65.8776 79.7253C58.4117 74.6839 56.0642 64.755 60.9132 57.6739C65.7622 50.5928 75.6911 49.3998 82.8876 54.8645L111.674 75.9153Z" fill="white"/>
<path d="M91.8286 102.221C92.4059 101.374 92.5002 97.2353 92.5002 97.2353L65.8394 79.7251C58.3734 74.6837 56.911 65.2551 60.8749 57.6737C63.4533 52.7862 75.9222 50.7466 79.8091 52.2474L73.6516 48.7839C62.9531 43.9733 54.7944 50.862 52.062 57.2119C45.3505 72.8 63.7768 83.2456 91.8286 102.221Z" fill="#45E0A8"/>
<path d="M92.4999 97.2101L65.8776 79.7253C58.4117 74.6839 56.0642 64.755 60.9132 57.6739C65.7622 50.5928 75.6911 49.3998 82.8876 54.8645L111.674 75.9153C117.831 80.5719 119.217 89.3463 114.945 95.6577C113.745 97.4036 112.218 98.7948 110.5 99.8005M95.9999 115.125C92.3177 114.66 88.6721 113.401 85.3121 111.282L52.4852 90.5778C37.6688 81.2262 32.6273 61.9841 42.0944 48.1683L45.9429 42.5881C55.41 28.7723 74.806 27.002 88.5063 38.047L118.793 62.3689C129.954 71.3357 132.186 87.6145 124.258 99.1982L121.064 103.855C118.858 107.083 116.036 109.682 112.85 111.585" stroke="black" stroke-width="1.2" stroke-miterlimit="10" stroke-linecap="round" stroke-linejoin="round"/>
<path d="M112.264 76.4287C107.165 77.5728 102.389 80.5642 99.0124 85.3054L96.0106 89.5386C88.5447 100.045 91.431 114.015 101.899 120.364L125.066 134.45C133.61 139.645 145.232 136.451 151.428 127.638L153.929 124.059C160.087 115.246 159.086 103.354 151.274 97.197L130.146 80.4564C129.661 80.0716 129.164 79.7116 128.656 79.3762M116.211 93.4301C114.591 94.2711 113.129 95.5087 111.982 97.12C108.172 102.469 109.442 109.704 114.714 113.129L130.415 123.636C134.918 126.599 141.229 125.021 144.578 120.249C147.926 115.438 147.233 109.05 142.923 105.856L128.106 94.2722C127.809 94.052 127.504 93.8492 127.192 93.6634" stroke="black" stroke-width="1.2" stroke-miterlimit="10" stroke-linecap="round" stroke-linejoin="round"/>
<path d="M182.523 44.6667L180.099 43.8201C174.018 41.7035 167.399 45.7443 165.552 52.556L161.395 67.8342C159.856 73.5298 163.012 79.187 168.361 80.6494L170.477 81.2267C175.673 82.6506 181.368 79.6488 183.37 74.2995L188.719 60.0219C191.105 53.749 188.411 46.7064 182.523 44.6667ZM178.097 71.7211C177.058 74.6459 173.98 76.3392 171.17 75.531C168.322 74.7229 166.706 71.6441 167.63 68.6039L171.17 56.5199C172.209 53.0563 175.596 51.0551 178.713 52.0942C181.792 53.1333 183.293 56.7123 182.138 60.0604L178.097 71.7211Z" fill="white"/>
<path d="M183.331 74.3762L188.68 60.0986C190.335 55.7114 189.566 50.9778 186.949 47.8221C184.563 47.2064 181.291 46.9755 178.559 48.8997C177.289 49.7848 176.404 50.9394 175.865 51.9784C176.789 51.786 177.751 51.786 178.713 52.1324C180.483 52.7096 181.715 54.172 182.254 55.9038C182.638 56.2117 183.023 56.5965 183.37 57.0199C185.525 59.5213 184.255 68.3727 179.675 79.4176C181.253 78.1092 182.561 76.4159 183.331 74.3762Z" fill="#45E0A8"/>
<path d="M182.523 44.6667L180.099 43.8201C174.018 41.7035 167.399 45.7443 165.552 52.556L161.395 67.8342C159.856 73.5298 163.012 79.187 168.361 80.6494L170.477 81.2267C175.673 82.6506 181.368 79.6488 183.37 74.2995L188.719 60.0219C191.105 53.749 188.411 46.7064 182.523 44.6667ZM178.097 71.7211C177.058 74.6459 173.98 76.3392 171.17 75.531C168.322 74.7229 166.706 71.6441 167.63 68.6039L171.17 56.5199C172.209 53.0563 175.596 51.0551 178.713 52.0942C181.792 53.1333 183.293 56.7123 182.138 60.0604L178.097 71.7211Z" stroke="black" stroke-width="1.2" stroke-miterlimit="10" stroke-linecap="round" stroke-linejoin="round"/>
<path d="M194.723 9.10726L191.452 7.99122C183.332 5.18188 174.365 10.8775 171.632 20.1907L165.475 41.0876C163.166 48.8999 167.053 56.8661 173.98 59.2136L176.789 60.1757C183.717 62.5232 191.683 58.5979 194.684 51.055L202.766 30.8508C206.345 21.8455 202.843 11.8781 194.723 9.10726ZM187.18 48.0147C185.641 52.1325 181.407 54.3261 177.636 53.0561C173.865 51.7862 171.863 47.4375 173.21 43.2812L178.521 26.8869C180.061 22.1149 184.717 19.3056 188.912 20.7295C193.068 22.1534 194.992 27.2333 193.261 31.9283L187.18 48.0147Z" fill="white"/>
<path d="M173.441 42.5889L178.521 26.8873C180.06 22.1153 184.717 19.306 188.912 20.7299C190.336 21.2302 191.49 22.1538 192.337 23.3083C192.375 23.2313 192.452 23.1929 192.491 23.1159C191.336 18.6133 186.68 15.4191 181.6 16.9199C174.48 18.9981 170.016 35.2769 173.441 42.5889Z" fill="#45E0A8"/>
<path d="M165.882 51.3234C164.658 48.2444 164.422 44.65 165.475 41.0876L171.632 20.1907C174.365 10.8775 183.332 5.18188 191.452 7.99122L194.723 9.10726C202.843 11.8781 206.345 21.8455 202.766 30.8508L194.684 51.055C191.683 58.5979 183.717 62.5232 176.789 60.1757L173.98 59.2136C172.851 58.8311 171.803 58.2995 170.85 57.6436M173.011 43.9999C173.066 43.7601 173.133 43.5203 173.21 43.2812L178.521 26.8869C180.061 22.1149 184.717 19.3056 188.912 20.7295C193.068 22.1534 194.992 27.2333 193.261 31.9283L187.18 48.0147C185.641 52.1325 181.407 54.3261 177.636 53.0561C176.908 52.811 176.246 52.451 175.661 51.9999" stroke="black" stroke-width="1.2" stroke-miterlimit="10" stroke-linecap="round" stroke-linejoin="round"/>
<path d="M180.698 53.2959C180.145 52.767 179.478 52.3522 178.713 52.0942C175.596 51.0551 172.209 53.0563 171.17 56.5199L167.63 68.6039C166.706 71.6441 168.322 74.7229 171.17 75.531C173.98 76.3392 177.058 74.6459 178.097 71.7211L181.879 60.8081M187.154 48C185.983 46.4987 184.419 45.3234 182.523 44.6667L180.099 43.8201C174.018 41.7035 167.399 45.7443 165.552 52.556L161.395 67.8342C159.856 73.5298 163.012 79.187 168.361 80.6494L170.477 81.2267C175.673 82.6506 181.368 79.6488 183.37 74.2995L188.719 60.0219C188.942 59.4363 189.12 58.844 189.256 58.2498" stroke="black" stroke-width="1.2" stroke-miterlimit="10" stroke-linecap="round" stroke-linejoin="round"/>
<path d="M258.145 277.534C258.568 277.957 261.108 280.651 265.11 280.536C268.42 280.459 271.46 278.534 273.076 275.494" stroke="#45E0A8" stroke-width="1.2" stroke-miterlimit="10" stroke-linecap="round" stroke-linejoin="round"/>
<path d="M285.43 258.523C285.968 258.792 289.24 260.37 292.742 258.869C294.781 258.022 295.936 256.56 296.436 255.867" stroke="#45E0A8" stroke-width="1.2" stroke-miterlimit="10" stroke-linecap="round" stroke-linejoin="round"/>
<path d="M298.058 88.5376C299.169 87.1949 299.128 85.3264 297.965 84.3642C296.803 83.4021 294.959 83.7106 293.848 85.0532C292.737 86.3959 292.778 88.2644 293.941 89.2265C295.104 90.1887 296.947 89.8803 298.058 88.5376Z" fill="#45E0A8" stroke="black" stroke-width="1.2" stroke-miterlimit="10" stroke-linecap="round" stroke-linejoin="round"/>
</svg>
